<svg version="1.1" id="Layer_1" xmlns="http://www.w3.org/2000/svg" xmlns:xlink="http://www.w3.org/1999/xlink" x="0px" y="0px"
	 width="100%" viewBox="0 0 137 136" enable-background="new 0 0 137 136" xml:space="preserve">
<path fill="#FEFEFF" opacity="1.000000" stroke="none" 
	d="
M1.000000,87.000000 
	C1.000000,58.407295 1.000000,29.814589 1.000000,1.000000 
	C28.687166,1.000000 56.374924,1.000000 84.412308,1.339635 
	C79.797997,5.043859 74.834045,8.408449 69.580780,11.959641 
	C67.739746,14.921336 66.188026,17.696430 64.411827,20.783188 
	C63.583977,26.716282 62.980614,32.337711 62.276611,38.373829 
	C62.235447,40.202785 62.294922,41.617054 62.263725,43.467560 
	C61.015148,44.703770 59.916374,46.064350 58.687763,46.193928 
	C55.557014,46.524128 52.360481,46.160439 49.204174,46.331280 
	C38.613659,46.904499 28.523487,49.122520 19.565342,55.910728 
	C15.953763,59.653488 12.648447,63.250015 9.137207,67.085068 
	C7.335310,70.881973 5.739337,74.440346 3.983454,78.344711 
	C2.882363,81.460472 1.941182,84.230232 1.000000,87.000000 
z"/>
<path fill="#FEFEFF" opacity="1.000000" stroke="none" 
	d="
M117.000000,1.000000 
	C123.970985,1.000000 130.941971,1.000000 138.000000,1.000000 
	C138.000000,29.020840 138.000000,57.041759 137.690186,85.390045 
	C136.933472,84.473763 136.486588,83.230133 136.057571,81.591431 
	C134.515686,77.429413 132.955933,73.662476 131.307373,69.547997 
	C127.610580,63.987827 124.867363,57.928665 117.933891,55.499969 
	C111.074570,50.924297 104.222542,47.098850 95.689453,46.986534 
	C94.623192,46.775494 93.801392,46.768936 92.543556,46.598862 
	C88.185074,46.392349 84.230476,46.619247 80.357857,46.157898 
	C79.027649,45.999435 77.902336,44.121040 76.773560,42.612446 
	C76.800972,40.785686 76.738235,39.374863 76.750000,37.512711 
	C77.688698,32.083076 78.552887,27.104773 79.673416,21.935135 
	C83.575211,17.329590 88.272926,15.771243 93.950134,15.827879 
	C101.319740,15.901399 108.695076,15.401420 116.441925,15.132646 
	C118.577629,13.073743 121.142105,11.294428 121.920204,8.927787 
	C123.212753,4.996430 119.942734,2.868970 117.000000,1.000000 
z"/>
<path fill="#6869C3" opacity="1.000000" stroke="none" 
	d="
M101.000000,137.000000 
	C79.979103,137.000000 58.958210,137.000000 37.347549,136.664581 
	C31.507097,133.840164 26.256409,131.351135 21.108780,128.478058 
	C22.568783,127.729378 23.925295,127.048401 25.282732,127.046555 
	C56.578243,127.003899 87.873856,127.035103 119.007065,127.364777 
	C112.896461,130.784637 106.948227,133.892319 101.000000,137.000000 
z"/>
<path fill="#9530E5" opacity="1.000000" stroke="none" 
	d="
M116.531342,1.000000 
	C119.942734,2.868970 123.212753,4.996430 121.920204,8.927787 
	C121.142105,11.294428 118.577629,13.073743 116.160439,14.810050 
	C114.872963,14.340149 114.244522,14.050776 113.608437,14.032879 
	C100.713539,13.670089 87.816444,13.378486 74.923775,12.952052 
	C73.228065,12.895965 71.554123,12.182198 69.870094,11.773037 
	C74.834045,8.408449 79.797997,5.043859 84.880966,1.339635 
	C95.354225,1.000000 105.708458,1.000000 116.531342,1.000000 
z"/>
<path fill="#FCFCFE" opacity="1.000000" stroke="none" 
	d="
M21.005720,128.862106 
	C26.256409,131.351135 31.507097,133.840164 36.878891,136.664581 
	C25.069508,137.000000 13.139017,137.000000 1.000000,137.000000 
	C1.000000,123.979851 1.000000,110.958580 1.349935,97.597153 
	C2.533758,100.170151 3.367646,103.083313 4.206354,106.353165 
	C6.021487,110.173798 7.831800,113.637749 9.735989,117.441330 
	C13.555149,121.474678 17.280436,125.168388 21.005720,128.862106 
z"/>
<path fill="#FCFCFE" opacity="1.000000" stroke="none" 
	d="
M101.468658,137.000000 
	C106.948227,133.892319 112.896461,130.784637 119.313095,127.237396 
	C123.004990,123.576378 126.228485,120.354919 129.710083,116.941940 
	C131.566879,113.497643 133.165588,110.244881 134.886902,106.628693 
	C136.006332,103.510185 137.003174,100.755096 138.000000,98.000000 
	C138.000000,110.924706 138.000000,123.849403 138.000000,137.000000 
	C125.980049,137.000000 113.958679,137.000000 101.468658,137.000000 
z"/>
<path fill="#7B55D0" opacity="1.000000" stroke="none" 
	d="
M1.000000,87.416664 
	C1.941182,84.230232 2.882363,81.460472 4.440448,78.345055 
	C9.789539,78.025566 14.521726,78.051727 19.160469,78.445915 
	C18.004644,83.208984 16.942261,87.604034 15.421291,91.999313 
	C10.308471,91.999702 5.654235,91.999855 1.000000,92.000000 
	C1.000000,90.611107 1.000000,89.222221 1.000000,87.416664 
z"/>
<path fill="#755CCC" opacity="1.000000" stroke="none" 
	d="
M1.000000,92.416664 
	C5.654235,91.999855 10.308471,91.999702 15.515281,92.412338 
	C17.163567,97.180077 18.259279,101.535027 18.868185,105.921654 
	C13.654765,105.967705 8.928150,105.982086 4.201534,105.996468 
	C3.367646,103.083313 2.533758,100.170151 1.349935,97.128494 
	C1.000000,95.611107 1.000000,94.222221 1.000000,92.416664 
z"/>
<path fill="#755CCC" opacity="1.000000" stroke="none" 
	d="
M138.000000,97.600006 
	C137.003174,100.755096 136.006332,103.510185 134.471664,106.630737 
	C129.574066,106.229446 125.214302,105.462685 120.879204,104.319519 
	C121.670464,100.628281 122.437057,97.313431 123.656998,93.998947 
	C128.740234,93.999550 133.370117,93.999779 138.000000,94.000000 
	C138.000000,95.066673 138.000000,96.133339 138.000000,97.600006 
z"/>
<path fill="#7957CF" opacity="1.000000" stroke="none" 
	d="
M138.000000,93.555832 
	C133.370117,93.999779 128.740234,93.999550 123.589188,93.560211 
	C122.753983,89.746567 122.439926,86.372040 122.509949,82.944412 
	C127.275917,82.589706 131.657806,82.288101 136.039703,81.986496 
	C136.486588,83.230133 136.933472,84.473763 137.690186,85.858704 
	C138.000000,88.370560 138.000000,90.741112 138.000000,93.555832 
z"/>
<path fill="#8546D9" opacity="1.000000" stroke="none" 
	d="
M95.933907,47.191013 
	C104.222542,47.098850 111.074570,50.924297 117.653824,55.828663 
	C116.915009,56.635281 116.285507,56.960587 115.655701,56.961205 
	C84.914482,56.991207 54.173206,57.007053 23.432093,56.946316 
	C22.244488,56.943970 21.058399,56.175808 19.871603,55.764496 
	C28.523487,49.122520 38.613659,46.904499 49.204174,46.331280 
	C52.360481,46.160439 55.557014,46.524128 58.687763,46.193928 
	C59.916374,46.064350 61.015148,44.703770 62.703331,43.457634 
	C67.716881,43.017101 72.200150,43.022743 76.683418,43.028389 
	C77.902336,44.121040 79.027649,45.999435 80.357857,46.157898 
	C84.230476,46.619247 88.185074,46.392349 92.651321,46.839920 
	C94.108040,47.226669 95.020973,47.208843 95.933907,47.191013 
z"/>
<path fill="#8149D6" opacity="1.000000" stroke="none" 
	d="
M19.565342,55.910728 
	C21.058399,56.175808 22.244488,56.943970 23.432093,56.946316 
	C54.173206,57.007053 84.914482,56.991207 115.655701,56.961205 
	C116.285507,56.960587 116.915009,56.635281 117.824722,56.132759 
	C124.867363,57.928665 127.610580,63.987827 130.808197,69.578568 
	C128.601532,69.971329 126.785881,69.824295 125.013191,70.036385 
	C121.920364,70.406410 118.853996,70.997543 115.487900,71.300957 
	C108.733826,64.407700 100.601532,61.359898 91.535675,61.199459 
	C76.431015,60.932159 61.315994,60.954697 46.210175,61.179779 
	C39.214741,61.284012 32.580990,63.106083 26.790913,68.049408 
	C20.684084,67.627609 15.013608,67.237076 9.343132,66.846542 
	C12.648447,63.250015 15.953763,59.653488 19.565342,55.910728 
z"/>
<path fill="#8E3ADF" opacity="1.000000" stroke="none" 
	d="
M79.417084,22.126472 
	C78.552887,27.104773 77.688698,32.083076 76.308289,37.523811 
	C71.320473,37.977207 66.848862,37.968170 62.377251,37.959137 
	C62.980614,32.337711 63.583977,26.716282 64.695023,21.156227 
	C69.940826,21.520554 74.678955,21.823513 79.417084,22.126472 
z"/>
<path fill="#9336E3" opacity="1.000000" stroke="none" 
	d="
M79.673416,21.935135 
	C74.678955,21.823513 69.940826,21.520554 64.919510,20.844559 
	C66.188026,17.696430 67.739746,14.921336 69.580780,11.959641 
	C71.554123,12.182198 73.228065,12.895965 74.923775,12.952052 
	C87.816444,13.378486 100.713539,13.670089 113.608437,14.032879 
	C114.244522,14.050776 114.872963,14.340149 115.786453,14.825706 
	C108.695076,15.401420 101.319740,15.901399 93.950134,15.827879 
	C88.272926,15.771243 83.575211,17.329590 79.673416,21.935135 
z"/>
<path fill="#7F4ED4" opacity="1.000000" stroke="none" 
	d="
M9.137207,67.085068 
	C15.013608,67.237076 20.684084,67.627609 26.620543,68.344643 
	C24.342321,71.806717 21.798115,74.942299 19.253910,78.077881 
	C14.521726,78.051727 9.789539,78.025566 4.600359,77.999069 
	C5.739337,74.440346 7.335310,70.881973 9.137207,67.085068 
z"/>
<path fill="#934EDF" opacity="1.000000" stroke="none" 
	d="
M62.276611,38.373829 
	C66.848862,37.968170 71.320473,37.977207 76.233795,37.975143 
	C76.738235,39.374863 76.800972,40.785686 76.773560,42.612450 
	C72.200150,43.022743 67.716881,43.017101 62.794003,43.021389 
	C62.294922,41.617054 62.235447,40.202785 62.276611,38.373829 
z"/>
<path fill="#7E53D2" opacity="1.000000" stroke="none" 
	d="
M115.776535,71.496002 
	C118.853996,70.997543 121.920364,70.406410 125.013191,70.036385 
	C126.785881,69.824295 128.601532,69.971329 130.897018,69.926102 
	C132.955933,73.662476 134.515686,77.429413 136.057571,81.591431 
	C131.657806,82.288101 127.275917,82.589706 122.329903,82.634438 
	C119.769363,78.750374 117.772942,75.123184 115.776535,71.496002 
z"/>
<path fill="#934EDF" opacity="1.000000" stroke="none" 
	d="
M95.689453,46.986534 
	C95.020973,47.208843 94.108040,47.226669 93.087341,47.003441 
	C93.801392,46.768936 94.623192,46.775494 95.689453,46.986534 
z"/>
<path fill="#6B65C5" opacity="1.000000" stroke="none" 
	d="
M129.451981,117.133461 
	C126.228485,120.354919 123.004990,123.576378 119.475471,126.925217 
	C87.873856,127.035103 56.578243,127.003899 25.282732,127.046555 
	C23.925295,127.048401 22.568783,127.729378 21.108780,128.478058 
	C17.280436,125.168388 13.555149,121.474678 10.229257,117.411255 
	C12.763837,117.027527 14.945054,117.286087 17.023348,116.935135 
	C20.087255,116.417763 23.077850,115.466255 26.421227,114.843224 
	C32.897202,120.009132 39.865616,122.378365 47.886353,122.256958 
	C61.516644,122.050629 75.161446,121.900421 88.782585,122.310310 
	C97.807114,122.581886 105.737442,120.335030 113.268234,115.123093 
	C118.923302,115.902725 124.187645,116.518089 129.451981,117.133461 
z"/>
<path fill="#7263C9" opacity="1.000000" stroke="none" 
	d="
M26.099670,114.699638 
	C23.077850,115.466255 20.087255,116.417763 17.023348,116.935135 
	C14.945054,117.286087 12.763837,117.027527 10.135382,117.071625 
	C7.831800,113.637749 6.021487,110.173798 4.206354,106.353165 
	C8.928150,105.982086 13.654765,105.967705 19.100727,106.141151 
	C21.913275,109.119202 24.006472,111.909416 26.099670,114.699638 
z"/>
<path fill="#7364C9" opacity="1.000000" stroke="none" 
	d="
M129.710083,116.941925 
	C124.187645,116.518089 118.923302,115.902725 113.449654,114.839180 
	C115.778404,111.159309 118.316467,107.927612 120.854538,104.695915 
	C125.214302,105.462685 129.574066,106.229446 134.349060,106.994164 
	C133.165588,110.244881 131.566879,113.497643 129.710083,116.941925 
z"/>
<path fill="#FDFCFE" opacity="1.000000" stroke="none" 
	d="
M120.879204,104.319519 
	C118.316467,107.927612 115.778404,111.159309 113.058929,114.674911 
	C105.737442,120.335030 97.807114,122.581886 88.782585,122.310310 
	C75.161446,121.900421 61.516644,122.050629 47.886353,122.256958 
	C39.865616,122.378365 32.897202,120.009132 26.421227,114.843224 
	C24.006472,111.909416 21.913275,109.119202 19.587532,106.109482 
	C18.259279,101.535027 17.163567,97.180077 15.973867,92.412094 
	C16.942261,87.604034 18.004644,83.208984 19.160469,78.445908 
	C21.798115,74.942299 24.342321,71.806717 27.056896,68.375900 
	C32.580990,63.106083 39.214741,61.284012 46.210175,61.179779 
	C61.315994,60.954697 76.431015,60.932159 91.535675,61.199459 
	C100.601532,61.359898 108.733826,64.407700 115.487900,71.300957 
	C117.772942,75.123184 119.769363,78.750374 121.945831,82.687538 
	C122.439926,86.372040 122.753983,89.746567 123.135841,93.559837 
	C122.437057,97.313431 121.670464,100.628281 120.879204,104.319519 
M50.041203,98.181786 
	C51.020164,97.157074 51.830650,95.765991 53.027691,95.215546 
	C54.121735,94.712463 55.634480,95.099800 56.961960,95.128822 
	C59.483395,95.183945 61.963989,95.619232 61.908627,91.602623 
	C61.852783,87.550789 59.225063,88.181725 56.793541,88.149033 
	C54.714787,88.121086 52.635357,88.143250 50.352779,88.143250 
	C50.164429,83.966515 50.011433,80.573753 49.859089,77.195503 
	C47.459042,77.195503 45.541641,77.195503 43.341457,77.195503 
	C43.163544,80.852112 42.998646,84.241226 42.822357,87.864471 
	C39.033401,88.074020 35.653435,88.260948 32.371223,88.442467 
	C31.633476,95.110893 31.633556,95.101791 37.622337,95.154785 
	C40.356113,95.178986 43.674595,94.367577 43.181019,99.848900 
	C43.009605,107.597778 43.133453,107.721558 49.913311,106.219887 
	C49.913311,103.857071 49.913311,101.425468 50.041203,98.181786 
M75.992783,113.865547 
	C76.338676,111.762619 76.684570,109.659691 77.044319,107.472511 
	C71.548996,107.472511 67.007759,107.472511 62.532944,107.472511 
	C61.760204,114.247292 61.760223,114.258347 67.652443,114.248871 
	C70.142471,114.244873 72.632401,114.183319 75.992783,113.865547 
M86.895119,91.469879 
	C86.349342,88.272957 84.239624,86.532379 81.313965,87.493942 
	C79.737473,88.012070 77.960381,90.344719 77.807549,92.000275 
	C77.685867,93.318298 79.618973,95.582321 81.117256,96.137085 
	C84.294647,97.313538 85.899269,94.986252 86.895119,91.469879 
M89.104446,105.102776 
	C90.748680,105.461311 93.140862,106.658119 93.878189,106.000229 
	C95.320267,104.713531 96.897049,102.063828 96.440964,100.590332 
	C95.986626,99.122490 92.855812,97.257225 91.344879,97.590393 
	C87.906075,98.348663 86.955101,101.180565 89.104446,105.102776 
M106.956238,90.805321 
	C105.388130,87.250038 102.818916,85.912994 99.611137,88.433990 
	C98.530876,89.282974 97.809387,92.019051 98.380089,93.171600 
	C99.074188,94.573326 101.663963,96.299942 102.790237,95.929535 
	C104.502647,95.366356 105.661667,93.120514 106.956238,90.805321 
M93.201988,77.148102 
	C91.497253,78.160896 89.363472,78.849716 88.257408,80.314552 
	C87.646721,81.123344 88.439377,84.339638 89.156647,84.547470 
	C91.209320,85.142235 94.394577,85.676971 95.602051,84.567505 
	C98.429008,81.970016 97.036171,79.228172 93.201988,77.148102 
z"/>
<path fill="#7C5CD0" opacity="1.000000" stroke="none" 
	d="
M43.374138,98.976814 
	C43.674595,94.367577 40.356113,95.178986 37.622337,95.154785 
	C31.633556,95.101791 31.633476,95.110893 32.371223,88.442467 
	C35.653435,88.260948 39.033401,88.074020 42.822357,87.864471 
	C42.998646,84.241226 43.163544,80.852112 43.341457,77.195503 
	C45.541641,77.195503 47.459042,77.195503 49.859089,77.195503 
	C50.011433,80.573753 50.164429,83.966515 50.352779,88.143250 
	C52.635357,88.143250 54.714787,88.121086 56.793541,88.149033 
	C59.225063,88.181725 61.852783,87.550789 61.908627,91.602623 
	C61.963989,95.619232 59.483395,95.183945 56.961960,95.128822 
	C55.634480,95.099800 54.121735,94.712463 53.027691,95.215546 
	C51.830650,95.765991 51.020164,97.157074 49.565300,98.591782 
	C47.184307,98.993446 45.279224,98.985130 43.374138,98.976814 
z"/>
<path fill="#7667CB" opacity="1.000000" stroke="none" 
	d="
M75.557579,114.006737 
	C72.632401,114.183319 70.142471,114.244873 67.652443,114.248871 
	C61.760223,114.258347 61.760204,114.247292 62.532944,107.472511 
	C67.007759,107.472511 71.548996,107.472511 77.044319,107.472511 
	C76.684570,109.659691 76.338676,111.762619 75.557579,114.006737 
z"/>
<path fill="#7E60D0" opacity="1.000000" stroke="none" 
	d="
M86.856537,91.842392 
	C85.899269,94.986252 84.294647,97.313538 81.117256,96.137085 
	C79.618973,95.582321 77.685867,93.318298 77.807549,92.000275 
	C77.960381,90.344719 79.737473,88.012070 81.313965,87.493942 
	C84.239624,86.532379 86.349342,88.272957 86.856537,91.842392 
z"/>
<path fill="#7D67CE" opacity="1.000000" stroke="none" 
	d="
M88.850906,104.814194 
	C86.955101,101.180565 87.906075,98.348663 91.344879,97.590393 
	C92.855812,97.257225 95.986626,99.122490 96.440964,100.590332 
	C96.897049,102.063828 95.320267,104.713531 93.878189,106.000229 
	C93.140862,106.658119 90.748680,105.461311 88.850906,104.814194 
z"/>
<path fill="#7F62D0" opacity="1.000000" stroke="none" 
	d="
M107.005981,91.197334 
	C105.661667,93.120514 104.502647,95.366356 102.790237,95.929535 
	C101.663963,96.299942 99.074188,94.573326 98.380089,93.171600 
	C97.809387,92.019051 98.530876,89.282974 99.611137,88.433990 
	C102.818916,85.912994 105.388130,87.250038 107.005981,91.197334 
z"/>
<path fill="#815BD3" opacity="1.000000" stroke="none" 
	d="
M93.569992,77.272003 
	C97.036171,79.228172 98.429008,81.970016 95.602051,84.567505 
	C94.394577,85.676971 91.209320,85.142235 89.156647,84.547470 
	C88.439377,84.339638 87.646721,81.123344 88.257408,80.314552 
	C89.363472,78.849716 91.497253,78.160896 93.569992,77.272003 
z"/>
<path fill="#7D68CF" opacity="1.000000" stroke="none" 
	d="
M43.277580,99.412857 
	C45.279224,98.985130 47.184307,98.993446 49.501350,98.997818 
	C49.913311,101.425468 49.913311,103.857071 49.913311,106.219887 
	C43.133453,107.721558 43.009605,107.597778 43.277580,99.412857 
z"/>
</svg>